<?xml version="1.0" encoding="UTF-8" standalone="no"?>
<!-- Created with Inkscape (http://www.inkscape.org/) -->

<svg
   xmlns:dc="http://purl.org/dc/elements/1.1/"
   xmlns:cc="http://creativecommons.org/ns#"
   xmlns:rdf="http://www.w3.org/1999/02/22-rdf-syntax-ns#"
   xmlns:svg="http://www.w3.org/2000/svg"
   xmlns="http://www.w3.org/2000/svg"
   xmlns:sodipodi="http://sodipodi.sourceforge.net/DTD/sodipodi-0.dtd"
   xmlns:inkscape="http://www.inkscape.org/namespaces/inkscape"
   width="744.09448819"
   height="1052.3622047"
   id="svg7062"
   version="1.1"
   inkscape:version="0.48.3.1 r9886"
   sodipodi:docname="sprites.svg">
  <defs
     id="defs7064">
    <filter
       color-interpolation-filters="sRGB"
       inkscape:collect="always"
       id="filter6545"
       x="-0.23720931"
       width="1.4744186"
       y="-0.23720931"
       height="1.4744186">
      <feGaussianBlur
         inkscape:collect="always"
         stdDeviation="4.4476746"
         id="feGaussianBlur6547" />
    </filter>
  </defs>
  <sodipodi:namedview
     id="base"
     pagecolor="#ffffff"
     bordercolor="#666666"
     borderopacity="1.0"
     inkscape:pageopacity="0.0"
     inkscape:pageshadow="2"
     inkscape:zoom="3.3050079"
     inkscape:cx="298.4852"
     inkscape:cy="895.84672"
     inkscape:document-units="px"
     inkscape:current-layer="layer1"
     showgrid="false"
     inkscape:window-width="1280"
     inkscape:window-height="749"
     inkscape:window-x="0"
     inkscape:window-y="27"
     inkscape:window-maximized="1" />
  <metadata
     id="metadata7067">
    <rdf:RDF>
      <cc:Work
         rdf:about="">
        <dc:format>image/svg+xml</dc:format>
        <dc:type
           rdf:resource="http://purl.org/dc/dcmitype/StillImage" />
        <dc:title></dc:title>
      </cc:Work>
    </rdf:RDF>
  </metadata>
  <g
     inkscape:label="Livello 1"
     inkscape:groupmode="layer"
     id="layer1">
    <g
       style="display:inline"
       transform="translate(123.51386,-445.39994)"
       id="g6768"
       inkscape:export-filename="/home/dmt/Scrivania/cw.png"
       inkscape:export-xdpi="120"
       inkscape:export-ydpi="120">
      <g
         id="g6770">
        <g
           transform="translate(50.041353,-0.32706705)"
           id="g6772">
          <path
             transform="matrix(0.78252824,0,0,0.77454266,1.067291,203.55149)"
             d="m 179,584.86218 c 0,12.42641 -10.07359,22.5 -22.5,22.5 -12.42641,0 -22.5,-10.07359 -22.5,-22.5 0,-12.4264 10.07359,-22.5 22.5,-22.5 12.42641,0 22.5,10.0736 22.5,22.5 z"
             sodipodi:ry="22.5"
             sodipodi:rx="22.5"
             sodipodi:cy="584.86218"
             sodipodi:cx="156.5"
             id="path6774"
             style="fill:#cccccc;fill-opacity:1;fill-rule:evenodd;stroke:#000000;stroke-width:0.12428605;stroke-linejoin:miter;stroke-miterlimit:4;stroke-opacity:1;stroke-dasharray:none;stroke-dashoffset:0"
             sodipodi:type="arc" />
          <path
             d="m 179,584.86218 c 0,12.42641 -10.07359,22.5 -22.5,22.5 -12.42641,0 -22.5,-10.07359 -22.5,-22.5 0,-12.4264 10.07359,-22.5 22.5,-22.5 12.42641,0 22.5,10.0736 22.5,22.5 z"
             sodipodi:ry="22.5"
             sodipodi:rx="22.5"
             sodipodi:cy="584.86218"
             sodipodi:cx="156.5"
             id="path6776"
             style="fill:#ffffff;stroke:#757575;stroke-width:0.50075918;stroke-linejoin:miter;stroke-miterlimit:4;stroke-opacity:1;stroke-dasharray:none;stroke-dashoffset:0"
             sodipodi:type="arc"
             transform="matrix(0.56507658,0,0,0.56507658,34.606473,325.38582)" />
          <path
             transform="matrix(0.56507658,0,0,0.56507658,34.606473,325.38582)"
             sodipodi:type="arc"
             style="opacity:0.52755905;fill:#ffffff;stroke:#000000;stroke-width:3.53934336;stroke-linejoin:miter;stroke-miterlimit:4;stroke-opacity:1;stroke-dasharray:none;stroke-dashoffset:0;filter:url(#filter6545)"
             id="path6778"
             sodipodi:cx="156.5"
             sodipodi:cy="584.86218"
             sodipodi:rx="22.5"
             sodipodi:ry="22.5"
             d="m 179,584.86218 c 0,12.42641 -10.07359,22.5 -22.5,22.5 -12.42641,0 -22.5,-10.07359 -22.5,-22.5 0,-12.4264 10.07359,-22.5 22.5,-22.5 12.42641,0 22.5,10.0736 22.5,22.5 z" />
          <path
             inkscape:connector-curvature="0"
             style="fill:#f9f9f9;fill-opacity:1;fill-rule:evenodd;stroke:#000000;stroke-width:0.10252438;stroke-linejoin:miter;stroke-miterlimit:4;stroke-opacity:1;stroke-dasharray:none;stroke-dashoffset:0"
             d="m 123.031,638.60597 c -9.53716,0 -17.26895,7.73179 -17.26895,17.26895 0,9.53717 7.73179,17.26895 17.26895,17.26895 9.53717,0 17.26895,-7.73178 17.26895,-17.26895 0,-9.53716 -7.73178,-17.26895 -17.26895,-17.26895 z m 0,4.54952 c 7.02188,0 12.71943,5.69756 12.71943,12.71943 0,7.02188 -5.69755,12.71943 -12.71943,12.71943 -7.02187,0 -12.71943,-5.69755 -12.71943,-12.71943 0,-7.02187 5.69756,-12.71943 12.71943,-12.71943 z"
             id="path6780" />
        </g>
      </g>
    </g>
    <g
       style="display:inline"
       id="g6796"
       transform="translate(51.527146,-531.72701)"
       inkscape:export-filename="/home/dmt/Scrivania/cb.png"
       inkscape:export-xdpi="120"
       inkscape:export-ydpi="120">
      <path
         transform="matrix(0.78252824,0,0,0.77454266,31.067291,289.55149)"
         d="m 179,584.86218 c 0,12.42641 -10.07359,22.5 -22.5,22.5 -12.42641,0 -22.5,-10.07359 -22.5,-22.5 0,-12.4264 10.07359,-22.5 22.5,-22.5 12.42641,0 22.5,10.0736 22.5,22.5 z"
         sodipodi:ry="22.5"
         sodipodi:rx="22.5"
         sodipodi:cy="584.86218"
         sodipodi:cx="156.5"
         id="path6798"
         style="fill:#333333;fill-opacity:1;fill-rule:evenodd;stroke:#000000;stroke-width:0.12428605;stroke-linejoin:miter;stroke-miterlimit:4;stroke-opacity:1;stroke-dasharray:none;stroke-dashoffset:0"
         sodipodi:type="arc" />
      <path
         d="m 179,584.86218 c 0,12.42641 -10.07359,22.5 -22.5,22.5 -12.42641,0 -22.5,-10.07359 -22.5,-22.5 0,-12.4264 10.07359,-22.5 22.5,-22.5 12.42641,0 22.5,10.0736 22.5,22.5 z"
         sodipodi:ry="22.5"
         sodipodi:rx="22.5"
         sodipodi:cy="584.86218"
         sodipodi:cx="156.5"
         id="path6800"
         style="fill:#666666;stroke:#757575;stroke-width:0.50075918;stroke-linejoin:miter;stroke-miterlimit:4;stroke-opacity:1;stroke-dasharray:none;stroke-dashoffset:0"
         sodipodi:type="arc"
         transform="matrix(0.56507658,0,0,0.56507658,64.606473,411.38582)" />
      <path
         transform="matrix(0.56507658,0,0,0.56507658,64.606473,411.38582)"
         sodipodi:type="arc"
         style="opacity:0.98999999;fill:#4d4d4d;fill-opacity:1;stroke:#000000;stroke-width:3.53934336;stroke-linejoin:miter;stroke-miterlimit:4;stroke-opacity:1;stroke-dasharray:none;stroke-dashoffset:0;filter:url(#filter6545)"
         id="path6802"
         sodipodi:cx="156.5"
         sodipodi:cy="584.86218"
         sodipodi:rx="22.5"
         sodipodi:ry="22.5"
         d="m 179,584.86218 c 0,12.42641 -10.07359,22.5 -22.5,22.5 -12.42641,0 -22.5,-10.07359 -22.5,-22.5 0,-12.4264 10.07359,-22.5 22.5,-22.5 12.42641,0 22.5,10.0736 22.5,22.5 z" />
      <path
         inkscape:connector-curvature="0"
         style="fill:#4d4d4d;fill-opacity:1;fill-rule:evenodd;stroke:#000000;stroke-width:0.10252438;stroke-linejoin:miter;stroke-miterlimit:4;stroke-opacity:1;stroke-dasharray:none;stroke-dashoffset:0"
         d="m 153.031,724.60597 c -9.53716,0 -17.26895,7.73179 -17.26895,17.26895 0,9.53717 7.73179,17.26895 17.26895,17.26895 9.53717,0 17.26895,-7.73178 17.26895,-17.26895 0,-9.53716 -7.73178,-17.26895 -17.26895,-17.26895 z m 0,4.54952 c 7.02188,0 12.71943,5.69756 12.71943,12.71943 0,7.02188 -5.69755,12.71943 -12.71943,12.71943 -7.02187,0 -12.71943,-5.69755 -12.71943,-12.71943 0,-7.02187 5.69756,-12.71943 12.71943,-12.71943 z"
         id="path6804" />
    </g>
    <g
       style="display:inline"
       id="g3947"
       transform="translate(-60.089395,-495.22807)"
       inkscape:export-filename="/home/dmt/Scrivania/d1.png"
       inkscape:export-xdpi="154.45"
       inkscape:export-ydpi="154.45">
      <rect
         ry="5.5"
         rx="5.5"
         y="579.36218"
         x="239"
         height="42"
         width="42"
         id="rect3111"
         style="fill:#ffffff;fill-opacity:1;fill-rule:evenodd;stroke:#000000;stroke-width:2;stroke-miterlimit:4;stroke-opacity:1;stroke-dasharray:none" />
      <path
         transform="translate(-115.74933,-10.185976)"
         d="m 381.97409,610.96991 c 0,3.43784 -2.78692,6.22476 -6.22476,6.22476 -3.43784,0 -6.22476,-2.78692 -6.22476,-6.22476 0,-3.43784 2.78692,-6.22476 6.22476,-6.22476 3.43784,0 6.22476,2.78692 6.22476,6.22476 z"
         sodipodi:ry="6.2247629"
         sodipodi:rx="6.2247629"
         sodipodi:cy="610.96991"
         sodipodi:cx="375.74933"
         id="path3881"
         style="fill:#ff0000;fill-opacity:1;fill-rule:evenodd;stroke:#000000;stroke-width:2;stroke-linejoin:miter;stroke-miterlimit:4;stroke-opacity:1;stroke-dasharray:none;stroke-dashoffset:0"
         sodipodi:type="arc" />
    </g>
    <g
       style="display:inline"
       id="g3951"
       transform="translate(-65.364572,-500.88695)">
      <rect
         style="fill:#ffffff;fill-opacity:1;fill-rule:evenodd;stroke:#000000;stroke-width:2;stroke-miterlimit:4;stroke-opacity:1;stroke-dasharray:none"
         id="rect3883"
         width="42"
         height="42"
         x="304.64294"
         y="585.02106"
         rx="5.5"
         ry="5.5"
         inkscape:export-filename="/home/dmt/Scrivania/d2.png"
         inkscape:export-xdpi="154.45"
         inkscape:export-ydpi="154.45" />
      <path
         sodipodi:type="arc"
         style="fill:#000000;fill-opacity:1;fill-rule:evenodd;stroke:#000000;stroke-width:2;stroke-linejoin:miter;stroke-miterlimit:4;stroke-opacity:1;stroke-dasharray:none;stroke-dashoffset:0"
         id="path3885"
         sodipodi:cx="375.74933"
         sodipodi:cy="610.96991"
         sodipodi:rx="6.2247629"
         sodipodi:ry="6.2247629"
         d="m 381.97409,610.96991 c 0,3.43784 -2.78692,6.22476 -6.22476,6.22476 -3.43784,0 -6.22476,-2.78692 -6.22476,-6.22476 0,-3.43784 2.78692,-6.22476 6.22476,-6.22476 3.43784,0 6.22476,2.78692 6.22476,6.22476 z"
         transform="matrix(0.64753253,0,0,0.64753253,71.0113,199.07643)" />
      <path
         transform="matrix(0.64753253,0,0,0.64753253,93.654762,221.7199)"
         d="m 381.97409,610.96991 c 0,3.43784 -2.78692,6.22476 -6.22476,6.22476 -3.43784,0 -6.22476,-2.78692 -6.22476,-6.22476 0,-3.43784 2.78692,-6.22476 6.22476,-6.22476 3.43784,0 6.22476,2.78692 6.22476,6.22476 z"
         sodipodi:ry="6.2247629"
         sodipodi:rx="6.2247629"
         sodipodi:cy="610.96991"
         sodipodi:cx="375.74933"
         id="path3887"
         style="fill:#000000;fill-opacity:1;fill-rule:evenodd;stroke:#000000;stroke-width:2;stroke-linejoin:miter;stroke-miterlimit:4;stroke-opacity:1;stroke-dasharray:none;stroke-dashoffset:0"
         sodipodi:type="arc" />
    </g>
    <g
       style="display:inline"
       id="g3956"
       transform="translate(-66.678537,-501.45287)"
       inkscape:export-filename="/home/dmt/Scrivania/d3.png"
       inkscape:export-xdpi="154.45"
       inkscape:export-ydpi="154.45">
      <rect
         ry="5.5"
         rx="5.5"
         y="585.58698"
         x="366.32468"
         height="42"
         width="42"
         id="rect3889"
         style="fill:#ffffff;fill-opacity:1;fill-rule:evenodd;stroke:#000000;stroke-width:2;stroke-miterlimit:4;stroke-opacity:1;stroke-dasharray:none" />
      <path
         transform="matrix(0.64753253,0,0,0.64753253,132.69304,199.64232)"
         d="m 381.97409,610.96991 c 0,3.43784 -2.78692,6.22476 -6.22476,6.22476 -3.43784,0 -6.22476,-2.78692 -6.22476,-6.22476 0,-3.43784 2.78692,-6.22476 6.22476,-6.22476 3.43784,0 6.22476,2.78692 6.22476,6.22476 z"
         sodipodi:ry="6.2247629"
         sodipodi:rx="6.2247629"
         sodipodi:cy="610.96991"
         sodipodi:cx="375.74933"
         id="path3891"
         style="fill:#000000;fill-opacity:1;fill-rule:evenodd;stroke:#000000;stroke-width:2;stroke-linejoin:miter;stroke-miterlimit:4;stroke-opacity:1;stroke-dasharray:none;stroke-dashoffset:0"
         sodipodi:type="arc" />
      <path
         sodipodi:type="arc"
         style="fill:#000000;fill-opacity:1;fill-rule:evenodd;stroke:#000000;stroke-width:2;stroke-linejoin:miter;stroke-miterlimit:4;stroke-opacity:1;stroke-dasharray:none;stroke-dashoffset:0"
         id="path3893"
         sodipodi:cx="375.74933"
         sodipodi:cy="610.96991"
         sodipodi:rx="6.2247629"
         sodipodi:ry="6.2247629"
         d="m 381.97409,610.96991 c 0,3.43784 -2.78692,6.22476 -6.22476,6.22476 -3.43784,0 -6.22476,-2.78692 -6.22476,-6.22476 0,-3.43784 2.78692,-6.22476 6.22476,-6.22476 3.43784,0 6.22476,2.78692 6.22476,6.22476 z"
         transform="matrix(0.64753253,0,0,0.64753253,155.3365,222.28579)" />
      <path
         sodipodi:type="arc"
         style="fill:#000000;fill-opacity:1;fill-rule:evenodd;stroke:#000000;stroke-width:2;stroke-linejoin:miter;stroke-miterlimit:4;stroke-opacity:1;stroke-dasharray:none;stroke-dashoffset:0"
         id="path3895"
         sodipodi:cx="375.74933"
         sodipodi:cy="610.96991"
         sodipodi:rx="6.2247629"
         sodipodi:ry="6.2247629"
         d="m 381.97409,610.96991 c 0,3.43784 -2.78692,6.22476 -6.22476,6.22476 -3.43784,0 -6.22476,-2.78692 -6.22476,-6.22476 0,-3.43784 2.78692,-6.22476 6.22476,-6.22476 3.43784,0 6.22476,2.78692 6.22476,6.22476 z"
         transform="matrix(0.64753253,0,0,0.64753253,144.01476,210.96408)" />
    </g>
    <g
       style="display:inline"
       id="g3962"
       transform="translate(-70.476877,-503.15056)"
       inkscape:export-filename="/home/dmt/Scrivania/d4.png"
       inkscape:export-xdpi="154.45"
       inkscape:export-ydpi="154.45">
      <rect
         style="fill:#ffffff;fill-opacity:1;fill-rule:evenodd;stroke:#000000;stroke-width:2;stroke-miterlimit:4;stroke-opacity:1;stroke-dasharray:none"
         id="rect3897"
         width="42"
         height="42"
         x="430.49075"
         y="587.28467"
         rx="5.5"
         ry="5.5" />
      <path
         sodipodi:type="arc"
         style="fill:#000000;fill-opacity:1;fill-rule:evenodd;stroke:#000000;stroke-width:2;stroke-linejoin:miter;stroke-miterlimit:4;stroke-opacity:1;stroke-dasharray:none;stroke-dashoffset:0"
         id="path3899"
         sodipodi:cx="375.74933"
         sodipodi:cy="610.96991"
         sodipodi:rx="6.2247629"
         sodipodi:ry="6.2247629"
         d="m 381.97409,610.96991 c 0,3.43784 -2.78692,6.22476 -6.22476,6.22476 -3.43784,0 -6.22476,-2.78692 -6.22476,-6.22476 0,-3.43784 2.78692,-6.22476 6.22476,-6.22476 3.43784,0 6.22476,2.78692 6.22476,6.22476 z"
         transform="matrix(0.64753253,0,0,0.64753253,196.07244,201.33998)" />
      <path
         transform="matrix(0.64753253,0,0,0.64753253,218.7159,223.98345)"
         d="m 381.97409,610.96991 c 0,3.43784 -2.78692,6.22476 -6.22476,6.22476 -3.43784,0 -6.22476,-2.78692 -6.22476,-6.22476 0,-3.43784 2.78692,-6.22476 6.22476,-6.22476 3.43784,0 6.22476,2.78692 6.22476,6.22476 z"
         sodipodi:ry="6.2247629"
         sodipodi:rx="6.2247629"
         sodipodi:cy="610.96991"
         sodipodi:cx="375.74933"
         id="path3901"
         style="fill:#000000;fill-opacity:1;fill-rule:evenodd;stroke:#000000;stroke-width:2;stroke-linejoin:miter;stroke-miterlimit:4;stroke-opacity:1;stroke-dasharray:none;stroke-dashoffset:0"
         sodipodi:type="arc" />
      <path
         transform="matrix(0.64753253,0,0,0.64753253,219.50257,201.34005)"
         d="m 381.97409,610.96991 c 0,3.43784 -2.78692,6.22476 -6.22476,6.22476 -3.43784,0 -6.22476,-2.78692 -6.22476,-6.22476 0,-3.43784 2.78692,-6.22476 6.22476,-6.22476 3.43784,0 6.22476,2.78692 6.22476,6.22476 z"
         sodipodi:ry="6.2247629"
         sodipodi:rx="6.2247629"
         sodipodi:cy="610.96991"
         sodipodi:cx="375.74933"
         id="path3903"
         style="fill:#000000;fill-opacity:1;fill-rule:evenodd;stroke:#000000;stroke-width:2;stroke-linejoin:miter;stroke-miterlimit:4;stroke-opacity:1;stroke-dasharray:none;stroke-dashoffset:0"
         sodipodi:type="arc" />
      <path
         sodipodi:type="arc"
         style="fill:#000000;fill-opacity:1;fill-rule:evenodd;stroke:#000000;stroke-width:2;stroke-linejoin:miter;stroke-miterlimit:4;stroke-opacity:1;stroke-dasharray:none;stroke-dashoffset:0"
         id="path3905"
         sodipodi:cx="375.74933"
         sodipodi:cy="610.96991"
         sodipodi:rx="6.2247629"
         sodipodi:ry="6.2247629"
         d="m 381.97409,610.96991 c 0,3.43784 -2.78692,6.22476 -6.22476,6.22476 -3.43784,0 -6.22476,-2.78692 -6.22476,-6.22476 0,-3.43784 2.78692,-6.22476 6.22476,-6.22476 3.43784,0 6.22476,2.78692 6.22476,6.22476 z"
         transform="matrix(0.64753253,0,0,0.64753253,196.85911,223.98351)" />
    </g>
    <g
       style="display:inline"
       id="g3969"
       transform="translate(-68.961405,-503.15056)"
       inkscape:export-filename="/home/dmt/Scrivania/d5.png"
       inkscape:export-xdpi="154.45"
       inkscape:export-ydpi="154.45">
      <rect
         ry="5.5"
         rx="5.5"
         y="587.28467"
         x="489.34305"
         height="42"
         width="42"
         id="rect3917"
         style="fill:#ffffff;fill-opacity:1;fill-rule:evenodd;stroke:#000000;stroke-width:2;stroke-miterlimit:4;stroke-opacity:1;stroke-dasharray:none" />
      <path
         transform="matrix(0.64753253,0,0,0.64753253,254.92474,201.33998)"
         d="m 381.97409,610.96991 c 0,3.43784 -2.78692,6.22476 -6.22476,6.22476 -3.43784,0 -6.22476,-2.78692 -6.22476,-6.22476 0,-3.43784 2.78692,-6.22476 6.22476,-6.22476 3.43784,0 6.22476,2.78692 6.22476,6.22476 z"
         sodipodi:ry="6.2247629"
         sodipodi:rx="6.2247629"
         sodipodi:cy="610.96991"
         sodipodi:cx="375.74933"
         id="path3919"
         style="fill:#000000;fill-opacity:1;fill-rule:evenodd;stroke:#000000;stroke-width:2;stroke-linejoin:miter;stroke-miterlimit:4;stroke-opacity:1;stroke-dasharray:none;stroke-dashoffset:0"
         sodipodi:type="arc" />
      <path
         sodipodi:type="arc"
         style="fill:#000000;fill-opacity:1;fill-rule:evenodd;stroke:#000000;stroke-width:2;stroke-linejoin:miter;stroke-miterlimit:4;stroke-opacity:1;stroke-dasharray:none;stroke-dashoffset:0"
         id="path3921"
         sodipodi:cx="375.74933"
         sodipodi:cy="610.96991"
         sodipodi:rx="6.2247629"
         sodipodi:ry="6.2247629"
         d="m 381.97409,610.96991 c 0,3.43784 -2.78692,6.22476 -6.22476,6.22476 -3.43784,0 -6.22476,-2.78692 -6.22476,-6.22476 0,-3.43784 2.78692,-6.22476 6.22476,-6.22476 3.43784,0 6.22476,2.78692 6.22476,6.22476 z"
         transform="matrix(0.64753253,0,0,0.64753253,277.5682,223.98345)" />
      <path
         sodipodi:type="arc"
         style="fill:#000000;fill-opacity:1;fill-rule:evenodd;stroke:#000000;stroke-width:2;stroke-linejoin:miter;stroke-miterlimit:4;stroke-opacity:1;stroke-dasharray:none;stroke-dashoffset:0"
         id="path3923"
         sodipodi:cx="375.74933"
         sodipodi:cy="610.96991"
         sodipodi:rx="6.2247629"
         sodipodi:ry="6.2247629"
         d="m 381.97409,610.96991 c 0,3.43784 -2.78692,6.22476 -6.22476,6.22476 -3.43784,0 -6.22476,-2.78692 -6.22476,-6.22476 0,-3.43784 2.78692,-6.22476 6.22476,-6.22476 3.43784,0 6.22476,2.78692 6.22476,6.22476 z"
         transform="matrix(0.64753253,0,0,0.64753253,278.35487,201.34005)" />
      <path
         transform="matrix(0.64753253,0,0,0.64753253,255.71141,223.98351)"
         d="m 381.97409,610.96991 c 0,3.43784 -2.78692,6.22476 -6.22476,6.22476 -3.43784,0 -6.22476,-2.78692 -6.22476,-6.22476 0,-3.43784 2.78692,-6.22476 6.22476,-6.22476 3.43784,0 6.22476,2.78692 6.22476,6.22476 z"
         sodipodi:ry="6.2247629"
         sodipodi:rx="6.2247629"
         sodipodi:cy="610.96991"
         sodipodi:cx="375.74933"
         id="path3925"
         style="fill:#000000;fill-opacity:1;fill-rule:evenodd;stroke:#000000;stroke-width:2;stroke-linejoin:miter;stroke-miterlimit:4;stroke-opacity:1;stroke-dasharray:none;stroke-dashoffset:0"
         sodipodi:type="arc" />
      <path
         sodipodi:type="arc"
         style="fill:#000000;fill-opacity:1;fill-rule:evenodd;stroke:#000000;stroke-width:2;stroke-linejoin:miter;stroke-miterlimit:4;stroke-opacity:1;stroke-dasharray:none;stroke-dashoffset:0"
         id="path3927"
         sodipodi:cx="375.74933"
         sodipodi:cy="610.96991"
         sodipodi:rx="6.2247629"
         sodipodi:ry="6.2247629"
         d="m 381.97409,610.96991 c 0,3.43784 -2.78692,6.22476 -6.22476,6.22476 -3.43784,0 -6.22476,-2.78692 -6.22476,-6.22476 0,-3.43784 2.78692,-6.22476 6.22476,-6.22476 3.43784,0 6.22476,2.78692 6.22476,6.22476 z"
         transform="matrix(0.64753253,0,0,0.64753253,267.03313,212.66178)" />
    </g>
    <g
       style="display:inline"
       id="g3977"
       transform="translate(-60.089395,-504.28233)"
       inkscape:export-filename="/home/dmt/Scrivania/d6.png"
       inkscape:export-xdpi="154.45"
       inkscape:export-ydpi="154.45">
      <rect
         style="fill:#ffffff;fill-opacity:1;fill-rule:evenodd;stroke:#000000;stroke-width:2;stroke-miterlimit:4;stroke-opacity:1;stroke-dasharray:none"
         id="rect3929"
         width="42"
         height="42"
         x="540.83881"
         y="588.41644"
         rx="5.5"
         ry="5.5" />
      <path
         sodipodi:type="arc"
         style="fill:#000000;fill-opacity:1;fill-rule:evenodd;stroke:#000000;stroke-width:2;stroke-linejoin:miter;stroke-miterlimit:4;stroke-opacity:1;stroke-dasharray:none;stroke-dashoffset:0"
         id="path3931"
         sodipodi:cx="375.74933"
         sodipodi:cy="610.96991"
         sodipodi:rx="6.2247629"
         sodipodi:ry="6.2247629"
         d="m 381.97409,610.96991 c 0,3.43784 -2.78692,6.22476 -6.22476,6.22476 -3.43784,0 -6.22476,-2.78692 -6.22476,-6.22476 0,-3.43784 2.78692,-6.22476 6.22476,-6.22476 3.43784,0 6.22476,2.78692 6.22476,6.22476 z"
         transform="matrix(0.64753253,0,0,0.64753253,307.20716,202.47176)" />
      <path
         sodipodi:type="arc"
         style="fill:#000000;fill-opacity:1;fill-rule:evenodd;stroke:#000000;stroke-width:2;stroke-linejoin:miter;stroke-miterlimit:4;stroke-opacity:1;stroke-dasharray:none;stroke-dashoffset:0"
         id="path3937"
         sodipodi:cx="375.74933"
         sodipodi:cy="610.96991"
         sodipodi:rx="6.2247629"
         sodipodi:ry="6.2247629"
         d="m 381.97409,610.96991 c 0,3.43784 -2.78692,6.22476 -6.22476,6.22476 -3.43784,0 -6.22476,-2.78692 -6.22476,-6.22476 0,-3.43784 2.78692,-6.22476 6.22476,-6.22476 3.43784,0 6.22476,2.78692 6.22476,6.22476 z"
         transform="matrix(0.64753253,0,0,0.64753253,307.20716,225.11529)" />
      <path
         transform="matrix(0.64753253,0,0,0.64753253,307.20716,213.79356)"
         d="m 381.97409,610.96991 c 0,3.43784 -2.78692,6.22476 -6.22476,6.22476 -3.43784,0 -6.22476,-2.78692 -6.22476,-6.22476 0,-3.43784 2.78692,-6.22476 6.22476,-6.22476 3.43784,0 6.22476,2.78692 6.22476,6.22476 z"
         sodipodi:ry="6.2247629"
         sodipodi:rx="6.2247629"
         sodipodi:cy="610.96991"
         sodipodi:cx="375.74933"
         id="path3939"
         style="fill:#000000;fill-opacity:1;fill-rule:evenodd;stroke:#000000;stroke-width:2;stroke-linejoin:miter;stroke-miterlimit:4;stroke-opacity:1;stroke-dasharray:none;stroke-dashoffset:0"
         sodipodi:type="arc" />
      <path
         transform="matrix(0.64753253,0,0,0.64753253,329.85062,202.47176)"
         d="m 381.97409,610.96991 c 0,3.43784 -2.78692,6.22476 -6.22476,6.22476 -3.43784,0 -6.22476,-2.78692 -6.22476,-6.22476 0,-3.43784 2.78692,-6.22476 6.22476,-6.22476 3.43784,0 6.22476,2.78692 6.22476,6.22476 z"
         sodipodi:ry="6.2247629"
         sodipodi:rx="6.2247629"
         sodipodi:cy="610.96991"
         sodipodi:cx="375.74933"
         id="path3941"
         style="fill:#000000;fill-opacity:1;fill-rule:evenodd;stroke:#000000;stroke-width:2;stroke-linejoin:miter;stroke-miterlimit:4;stroke-opacity:1;stroke-dasharray:none;stroke-dashoffset:0"
         sodipodi:type="arc" />
      <path
         transform="matrix(0.64753253,0,0,0.64753253,329.85062,225.11529)"
         d="m 381.97409,610.96991 c 0,3.43784 -2.78692,6.22476 -6.22476,6.22476 -3.43784,0 -6.22476,-2.78692 -6.22476,-6.22476 0,-3.43784 2.78692,-6.22476 6.22476,-6.22476 3.43784,0 6.22476,2.78692 6.22476,6.22476 z"
         sodipodi:ry="6.2247629"
         sodipodi:rx="6.2247629"
         sodipodi:cy="610.96991"
         sodipodi:cx="375.74933"
         id="path3943"
         style="fill:#000000;fill-opacity:1;fill-rule:evenodd;stroke:#000000;stroke-width:2;stroke-linejoin:miter;stroke-miterlimit:4;stroke-opacity:1;stroke-dasharray:none;stroke-dashoffset:0"
         sodipodi:type="arc" />
      <path
         sodipodi:type="arc"
         style="fill:#000000;fill-opacity:1;fill-rule:evenodd;stroke:#000000;stroke-width:2;stroke-linejoin:miter;stroke-miterlimit:4;stroke-opacity:1;stroke-dasharray:none;stroke-dashoffset:0"
         id="path3945"
         sodipodi:cx="375.74933"
         sodipodi:cy="610.96991"
         sodipodi:rx="6.2247629"
         sodipodi:ry="6.2247629"
         d="m 381.97409,610.96991 c 0,3.43784 -2.78692,6.22476 -6.22476,6.22476 -3.43784,0 -6.22476,-2.78692 -6.22476,-6.22476 0,-3.43784 2.78692,-6.22476 6.22476,-6.22476 3.43784,0 6.22476,2.78692 6.22476,6.22476 z"
         transform="matrix(0.64753253,0,0,0.64753253,329.85062,213.79356)" />
    </g>
    <path
       transform="matrix(0.70591872,0,0,0.69871493,278.14793,-198.50121)"
       d="m 179,584.86218 a 22.5,22.5 0 1 1 -45,0 22.5,22.5 0 1 1 45,0 z"
       sodipodi:ry="22.5"
       sodipodi:rx="22.5"
       sodipodi:cy="584.86218"
       sodipodi:cx="156.5"
       id="path3150"
       style="fill:#00ff00;fill-opacity:1;fill-rule:evenodd;stroke:#000000;stroke-width:0.12428605000000000;stroke-linejoin:miter;stroke-miterlimit:4;stroke-opacity:1;stroke-dasharray:none;stroke-dashoffset:0;display:inline;opacity:1"
       sodipodi:type="arc"
       inkscape:export-filename="/home/dmt/Scrivania/ch.png"
       inkscape:export-xdpi="135.08315"
       inkscape:export-ydpi="135.08315" />
  </g>
</svg>
